# xmcd
# Copyright (C) 1995-1998 Ti Kan
#
# Track frame offsets:
#       150
#       25485
#       49280
#       70160
#       91632
#       112695
#       129405
#       146165
#       169383
#       189346
#       207500
#       233455
#       259216
#       279341
#       298773
#
# Disc length: 4426 seconds
#
# Revision: 2
# Processed by: cddbd v1.4b42PL1 Copyright (c) Steve Scherf et al.
# Submitted via: CD-Transfer v1.0
#
DISCID=da11480f
DTITLE=Ninaus - Innoscience
DYEAR=1999
DGENRE=
TTITLE0=Seeking In Vain
TTITLE1=Now Or Never
TTITLE2=Shiver And Hope
TTITLE3=Touch
TTITLE4=Fly
TTITLE5=Fairy Tale
TTITLE6=Wild Time
TTITLE7=Reason
TTITLE8=Silent Stones
TTITLE9=Innocence
TTITLE10=Aeroplane
TTITLE11=Leaving Home
TTITLE12=Angel
TTITLE13=Merger Man
TTITLE14=Data Track
EXTD=
EXTT0=
EXTT1=
EXTT2=
EXTT3=
EXTT4=
EXTT5=
EXTT6=
EXTT7=
EXTT8=
EXTT9=
EXTT10=
EXTT11=
EXTT12=
EXTT13=
EXTT14=
PLAYORDER=
